<svg width="143" height="143" viewBox="0 0 143 143" fill="none" xmlns="http://www.w3.org/2000/svg">
<rect width="143" height="143" rx="40" fill="#1447E6"/>
<path d="M72.0001 26.7292C97.0024 26.7292 117.271 46.9977 117.271 72.0001C117.271 97.0024 97.0024 117.271 72.0001 117.271C64.248 117.271 56.9413 115.321 50.5551 111.879C47.201 110.072 44.5385 110.033 42.1272 110.486C40.8386 110.729 39.614 111.112 38.2497 111.543L38.172 111.569C36.9039 111.969 35.4142 112.438 33.9193 112.664C32.0538 112.947 30.2811 112.257 29.067 111.043C27.1625 109.137 26.959 106.397 27.8464 104.306L28.1698 103.499C29.7597 99.2571 30.9673 92.1118 29.0325 86.2937C27.5371 81.7967 26.7292 76.9892 26.7292 72.0001C26.7292 46.9977 46.9977 26.7292 72.0001 26.7292ZM75.3987 53.7986C74.6894 50.3285 69.9971 50.1098 68.7909 53.1473L68.6015 53.7986C67.1722 60.7859 61.9614 66.3423 55.1745 68.2649L53.7986 68.6015C50.0981 69.358 50.0977 74.6426 53.7986 75.3987C61.2515 76.9229 67.0773 82.7489 68.6015 90.2016C69.358 93.9015 74.6417 93.9015 75.3987 90.2016C76.9229 82.7489 82.7489 76.9229 90.2016 75.3987C93.9023 74.6426 93.9023 69.3576 90.2016 68.6015C82.7489 67.0773 76.9229 61.2511 75.3987 53.7986Z" fill="white"/>
</svg>
